<?xml version="1.0" encoding="UTF-8"?>
<svg xmlns="http://www.w3.org/2000/svg" viewBox="0 0 1870.84 1024">
  <defs>
    <style>
      .cls-1, .cls-2 {
        fill: #add0e0;
      }

      .cls-3, .cls-2, .cls-4, .cls-5, .cls-6, .cls-7, .cls-8, .cls-9 {
        stroke-width: 0px;
      }

      .cls-3, .cls-10 {
        fill: #ddeffc;
      }

      .cls-4 {
        fill: #0e8c4e;
      }

      .cls-5 {
        fill: #8eb9c9;
      }

      .cls-11 {
        letter-spacing: .02em;
      }

      .cls-11, .cls-6 {
        fill: #192b3d;
      }

      .cls-12 {
        font-size: 157.88px;
      }

      .cls-12, .cls-10 {
        font-family: Sen-ExtraBold, Sen;
        font-weight: 700;
      }

      .cls-13 {
        font-size: 34.68px;
      }

      .cls-13, .cls-14 {
        font-family: NeueHaasUnicaPro-Regular, 'Neue Haas Unica Pro';
      }

      .cls-13, .cls-9 {
        fill: #fff;
      }

      .cls-14 {
        font-size: 35.55px;
      }

      .cls-14, .cls-7 {
        fill: #1567af;
      }

      .cls-8 {
        fill: #009640;
      }

      .cls-10 {
        font-size: 71.73px;
      }
    </style>
  </defs>
  <g id="Capa_6" data-name="Capa 6">
    <rect class="cls-6" x="95.7" y="145.51" width="1775.14" height="725.73"/>
  </g>
  <g id="Capa_14" data-name="Capa 14">
    <path class="cls-8" d="M788.79,654.27c-48.68,70.68-130.17,117.01-222.48,117.01s-173.79-46.33-222.47-117.01l222.47-152.96,222.48,152.96Z"/>
  </g>
  <g id="Capa_8" data-name="Capa 8">
    <text class="cls-12" transform="translate(851.21 474.02)"><tspan class="cls-11" x="0" y="0">n</tspan><tspan class="cls-1" x="99.66" y="0">oches de</tspan></text>
    <text class="cls-10" transform="translate(856.42 546.38)"><tspan x="0" y="0">MEDICINA INTERNA</tspan></text>
  </g>
  <g id="Capa_5" data-name="Capa 5">
    <path class="cls-3" d="M788.7,501.31c0,123.1-99.79,222.89-222.89,222.89-104.51,0-192.21-71.92-216.31-168.98,7.79-.82,16.2-6.17,22.19-9.54,8.84-4.97,24.83-8.46,25.03-20.74.18-11.44-6.36-22.64-8.12-33.88-.36-2.31.41-4.22,1.72-5.59-.15-.19-.3-.36-.44-.54-2.77-3.47-5.44-7.11-7.87-10.94-2.04-1.01-3.92-2.28-5.49-4.01-2.74-3.02-4.51-6.8-6.49-10.38-1.09-.34-2.14-.87-3.09-1.62-2.19-10.96.72-22.42,5.73-32.42,2.94-5.84,6.61-12.92,3.08-18.41-6.31,2.93-12.1,6.93-17.08,11.75,32.77-82.31,113.17-140.48,207.15-140.48,123.1,0,222.89,99.79,222.89,222.89Z"/>
  </g>
  <g id="Capa_7" data-name="Capa 7">
    <g>
      <path class="cls-2" d="M485.11,429.51c-3.87-2.27-7.63,3.29-11.92,4.61-3.87,1.19-7.8-1.3-11.59-2.74-3.79-1.43-9.39-.92-10.24,3.05-.39,1.8.42,3.65.25,5.47-.16,1.82-2.39,3.65-3.69,2.36-1.31-4.42-2.63-8.83-3.94-13.26,11.25-2.36,18.61-12.85,24.82-22.53,1.89-2.94,3.87-6.25,3.28-9.7-.59-3.45-5.32-6.05-7.71-3.49-.08-2.65-1.33-5.25-3.36-6.94,2.52-4.03,4-8.69,4.27-13.43-3.87,1.79-9.06-1.73-8.82-6-3.71.29-7.42.56-11.13.84-.62-1.69-1.22-3.39-1.84-5.08-5.07,1.27-9.4,5.19-11.16,10.11,2.86.3,5.71.62,8.57.93,3.5,2.86-.64,8.86-5.16,9.25-4.5.41-8.83-2-13.36-2.1-11.6-.28-17.93,13.14-21.28,24.26-4.48-3.7-11.8.09-13.84,5.54-2.03,5.43-.56,11.49.64,17.17,1.68,7.86,2.73,16.46-.92,23.63-.28.54-.6,1.06-.94,1.57.98,3.64,2.44,7.24,4.22,10.75,1.35.37,2.9.7,4.12.94,5.31,1.06,5.55,6.82,2.77,10.06,3,4.03,6.38,7.83,9.95,11.32.03-.1.05-.2.09-.3,1.2-3.32,4.2-5.2,7.73-4.39,2.41.55,4.37,3,4.63,5.51,1.38.13,2.67.82,3.69,1.79,3.93,1.02,8.35.21,11.53-2.33,4.03-3.23,5.82-9.01,4.31-13.95,3.37,3.08,8.82,3.61,12.73,1.25,3.9-2.36,5.96-7.43,4.79-11.85,14.6.8,28.76-11.03,30.61-25.52.32-2.49.05-5.51-2.11-6.79Z"/>
      <path class="cls-2" d="M396.71,524.94c-.2,12.28-16.19,15.78-25.03,20.74-5.98,3.37-14.39,8.72-22.19,9.54-4.3-17.26-6.57-35.32-6.57-53.91,0-29.11,5.58-56.92,15.74-82.41,4.98-4.83,10.77-8.82,17.08-11.75,3.53,5.49-.14,12.57-3.08,18.41-5.02,9.99-7.92,21.46-5.73,32.42.96.75,2,1.28,3.09,1.62,1.97,3.58,3.75,7.37,6.49,10.38,1.57,1.73,3.46,3,5.49,4.01,2.43,3.82,5.1,7.47,7.87,10.94.14.18.29.35.44.54-1.31,1.37-2.09,3.28-1.72,5.59,1.76,11.24,8.3,22.44,8.12,33.88Z"/>
      <path class="cls-2" d="M664.72,380.86c-1.42-.3-2.5-1.04-3.27-2.01-1.35.65-2.63,1.49-3.76,2.61-1.81,1.81-3.64,4.34-6.18,4.04-2.49-.3-3.7-3.15-4.42-5.57,3.54-2.52,7.74-4.12,12.08-4.59-1.89-4.5-8.09-5.13-12.84-4.02-4.75,1.12-9.7,3.24-14.33,1.71-3.08-1.02-5.41-3.5-7.86-5.64-3.06-2.67-6.52-4.85-10.2-6.57-.83.11-1.67.08-2.5-.15l-1.44-.61c-.06.02-.13.04-.19.06-.53.25-1.13.41-1.8.5-.49.45-1.04.81-1.68,1.02-.07.03-.14.05-.2.08-.07.25-.15.49-.2.75,0,.06,0,.1-.02.18-.06,1.67,0,3.34,0,5.01,0,.55-.09,1.08-.23,1.6.25,2.77-.16,5.58-1.33,8.12-8.9.17-20.33-1.51-22.34-10.17-.47-2-.3-4.11-.89-6.08-1.48-4.91-7.1-7.26-12.19-7.82-4.47-.51-9.13-.17-13.4-1.41-.35.17-.72.32-1.14.44-3.25.93-6.12,2.58-9.53,2.95-3.32.36-6.48-.62-9.79-.64-2.03-.01-3.56-.82-4.57-2.01-10.7-1.91-22.54,3.13-28.16,12.53-6.37,10.66-3.99,25.7,5.33,33.89,5.59,4.91,13.63,8.07,15.77,15.19,1.54,5.11-1.05,11.13-5.82,13.53-2.11,1.06-4.58,1.5-6.35,3.07-4.35,3.89-1.46,10.99-2.15,16.79-1.05,8.85-11.22,14.1-20.12,13.49-3.4-.22-6.88-1.05-10.16-.12-3.27.95-6.09,4.66-4.57,7.71.84,1.65,2.64,2.55,4.19,3.57,7.9,5.26,10.34,15.58,12.14,24.9.29,1.44.55,2.99-.08,4.32-1.26,2.69-5.24,2.64-7.88,1.25-2.64-1.38-4.88-3.66-7.81-4.23-.85,8.28-5.51,16.09-12.38,20.79,6.75,5.66,15.71,7.65,23.93,10.84,8.2,3.19,16.63,8.61,18.67,17.18.74,3.1.67,6.63,2.82,8.98,1.72,1.89,4.41,2.47,6.67,3.65,6.17,3.22,8.78,11.8,5.47,17.91-9.91,1.68-13.65-13.72-22.92-17.6-5.29-2.22-12.29-.52-16.28-4.65-2.77-2.87-2.77-7.32-3.75-11.2-.98-3.87-4.52-8.02-8.26-6.63,1.9,3.39,1.92,7.77.04,11.17-9.27-8.55-23.65-11.03-35.23-6.06-1,.43-2.05.92-3.12.8-3.44-.37-3.32-5.63-1.33-8.44,2.01-2.81,5.04-5.74,4.14-9.07-1.52,3.24-6.62,2.73-9.16.21-2.55-2.52-3.6-6.16-5.63-9.11-1.45-2.12-3.92-3.91-6.33-4.06-.88,1.41-2.23,2.29-3.72,2.65,1.09,5.4,1.39,10.79-.08,16.12-2.14,7.75-8.27,13.39-15.23,16.98-3.35,1.73-6.7,3.45-10.05,5.17,2.9,3.96-.51,11.39-6.8,9.98-1.15-.26-2.37.61-3.91,2.2-1.47,1.51-2.75,3.19-4.07,4.84-1.42,14.64-4.21,33.25,11.96,37.97,4.14,1.21,5.13,5.22,3.97,8.36,2.54,5.34,3.67,11.55,7.88,15.67,6.85,6.71,18.5,4.84,26.67,9.85,3.39,2.06,6.01,5.21,9.41,7.25,3.41,2.03,8.3,2.63,10.99-.29-5.92-5.55-11.84-11.09-17.76-16.63,10.2-1.23,8.45-18.25,16.84-24.17,4.91-3.47,12.05-1.8,16.55,2.18,4.5,3.98,7,9.69,9.35,15.21,1.04,2.44,2.09,5.07,1.56,7.65-1.65,8.13-16.47,8.83-16.45,17.12.01,4.5,4.75,7.31,8.85,9.18,8.09,3.7,16.53,7.47,25.41,7.27,8.87-.2,18.33-5.61,20.08-14.32.42-2.1.3-4.52-1.14-6.1-1.63-1.8-4.32-1.97-6.6-2.8-6.09-2.18-9.24-10.2-6.26-15.95-2.47.41-4.94.8-7.39,1.19,4.33-3.24,8.95-6.93,10.15-12.22,2.23-9.92-8.6-21.03-2.85-29.42,1.89-3.53,7.73-2.17,9.82,1.25,2.09,3.41,1.88,7.69,2.6,11.63,1.81,9.98,9.82,17.93,18.96,22.34,3.6,1.74,7.39,3.01,11.26,4,1.17-1.1,2.73-1.78,4.34-1.78h4.31c1.47-.71,3.01-1.31,4.58-1.76.36-.73.73-1.46,1.09-2.19,1.13-2.27,3.63-3.2,6-2.99.99-1.23,2.13-2.34,3.32-3.26,4.69-3.62,10.55-6.43,12.96-11.84,2.48-5.58-.14-12.89-5.61-15.62-1.85-.93-3.9-1.37-5.83-2.09-3.1-1.17-5.98-3.37-7.66-6.16-2.59-.14-5.18-.29-7.61-.95-7.07-1.92-11.21-7.14-13.53-13.87-1.14-3.3.46-5.78,2.86-6.94-8.54-7.26-11.24-22-21.24-28.3-2.03-1.29-4.56-2.45-5.12-4.79-.39-1.65.37-3.33,1.1-4.86,2.13-4.42,4.27-8.85,6.39-13.27,5.58,7.14,17.12,8.6,24.3,3.07,7.17-5.54,8.69-17.08,3.2-24.27-3.92-5.15-10.62-7.74-17.08-7.6-.71,3.74-1.42,7.48-2.13,11.22-4.94-.32-9.73-2.51-13.18-6.04,5.13-8.49,9.54-17.41,13.18-26.65,10.8,4.73,23.52,4.86,34.43.38-5.04-7.51-4.46-17.28-5.26-26.28-.79-9.02-4.45-19.31-13.13-21.87,15.37-3.24,30.61-7.18,45.63-11.81-3.6,8.09-10.19,14.79-18.19,18.55,7.71,5.67,13.02,14.49,14.47,23.94,9.77.6,18.09,10.11,17.41,19.86,4.03-4.24,8.06-8.49,12.1-12.75,7.18,2.27,14.7,3.5,22.24,3.64-.89,8.01-1.8,16-2.69,24.01,7.94-3.95,16.21-7.21,24.7-9.74-6.67-5.07-10.92-13.18-11.29-21.54-8.32-5.03-7.14-17.25-4.91-26.71,7.8,6.5,20.73,5.45,27.38-2.21,1.12-7.18-.26-14.72-3.82-21.04,1.52-1.59,3.05-3.19,4.58-4.78-.33-.74-.51-1.57-.51-2.48,0-1.32.5-2.63,1.3-3.72-.2-.33-.37-.69-.52-1.05Z"/>
      <path class="cls-2" d="M736.15,434.98c-.5-2.26-1.19-4.78-3.23-5.88-4.03-2.19-9.81,2.95-13.23-.09-.97-5.43-1.9-11.16-.05-16.36,1.14-3.21,3.76-6.06,6.82-7.37.04-1.91.35-3.8.88-5.66-3.72-4.18-7.09-8.68-10.04-13.43-.36-.13-.71-.29-1.03-.49-.4-.25-1.07-.8-1.55-.85.8.33.87.37.21.12-.22-.08-.45-.16-.67-.23-1.17-.38-2.36-.67-3.54-.97-.46-.11-.88-.28-1.27-.49-6.68,2.2-14.74.09-21.92-2.35-3.21,3.73-7.06,8.15-11.76,10.06.06.5.04,1.01-.05,1.52-5.74.49-9.75,6.77-9.19,12.5.56,5.74,4.63,10.61,9.43,13.8,2.65,1.76,5.75,3.32,6.98,6.25,1.23,2.93-1.34,7.3-4.29,6.13,1.51,5.58,8.45,8.97,13.78,6.68l.32,8.43c4.61,3.1,11.98-.49,12.42-6.03,4.77-2.89,11.46-2.1,15.44,1.82,3.96,3.92,4.84,10.61,2.02,15.42-1.81-.22-3.62-.43-5.43-.64,3.03,7.6,8.51,14.22,15.41,18.61-2.91-7.69-3.2-16.36-.79-24.22,1.84,3.06,5.47,4.92,9.03,4.62-1.56-6.97-3.11-13.94-4.67-20.9Z"/>
      <path class="cls-2" d="M547.79,338.87c-7.1-3.57-14.86-5.78-22.76-6.58-.79.39-1.6.77-2.43,1.06-.25.09-.51.13-.76.19-.07.47-.14.95-.21,1.42-.04.51-.06,1.01-.03,1.52,0,.11,0,.22,0,.33.73.94,1.07,2.09,1.09,3.27,2.53,1.67,5.4,2.85,8.38,3.37.98-.85,2.3-1.38,3.98-1.37,2.81.02,5.78,1.16,8.58.79,1.2-.16,2.39-.61,3.56-1.12.07-.84.32-1.67.76-2.45-.06-.14-.11-.28-.16-.42Z"/>
      <path class="cls-2" d="M543.05,548.47c-1.41.29-2.85.47-4.24.9-.62.19-1.23.27-1.83.25-.05,2.66-.09,5.32-.14,7.99,1.65.58,3.08,1.85,3.8,3.93,1.73,5.02,5.25,5.44,10.07,5.81.55.04,1.1.09,1.65.14.91-.55,1.89-.9,2.9-1.03v-2.61c0-.75.15-1.44.39-2.09-3.32-5.16-7.62-9.68-12.59-13.29Z"/>
      <path class="cls-2" d="M676.65,461.73c.56,5.96-2.74,12.11-8.02,14.94-2.91,1.56-6.27,2.16-9.15,3.79-8.81,4.98-9.74,18.19-4.47,26.84s14.71,13.72,23.85,18.1c8.67,4.15,18.73,8.08,27.62,4.42-2.05-6.46-4.11-12.91-6.16-19.37-.79-2.48-1.57-5.2-.6-7.61,2.1-5.2,9.59-4.48,14.72-6.76.92-.41,1.89-1.08,2-2.08.12-1.07-.77-1.96-1.58-2.66-11.62-10.01-23.66-19.54-36.07-28.55l-2.12-1.04Z"/>
      <path class="cls-2" d="M653.1,319.95c-5.89-.67-11.46,4.36-12.51,10.19-1.06,5.83,1.71,11.88,6.01,15.95,4.91,4.64,11.51,6.99,17.97,8.94,3.55,1.07,7.13,2.05,10.79,2.65,4.14.68,8.83.72,12.02-2.02,2.58-2.22,3.59-5.86,3.34-9.26-.25-3.39-1.6-6.6-3.06-9.68-2.28-4.81-5-9.6-9.22-12.84-3.71-2.85-8.32-4.27-12.9-5.2-7.1-1.45-2.68-1.81-9.65.19l-2.8,1.07Z"/>
      <path class="cls-2" d="M510.01,308.78c-7.24,1.64-14.57,3.32-21.1,6.85s-12.25,9.21-14.13,16.38c3.06-1.32,6.12-2.63,9.18-3.95,12.53-5.39,25.41-10.87,39.05-11.46,13.17-.57,26.63,3.44,39.37.09,1.57-.41,3.37-1.2,3.66-2.8.49-2.6-3.11-3.78-5.75-3.87-18.21-.6-30.42-1.03-48.64-1.29l-1.64.05Z"/>
    </g>
  </g>
  <g id="Capa_4" data-name="Capa 4">
    <path class="cls-2" d="M941.05,434.86v39.52c-6.73,0-12.87-2.53-17.53-6.68-5.41-4.82-8.82-11.85-8.82-19.67v-13.17c0-7.27-5.9-13.17-13.17-13.17-1.93,0-3.76.42-5.41,1.16-4.58,2.06-7.76,6.67-7.76,12.01v39.52c-14.55,0-26.35-11.8-26.35-26.35v-52.7c6.73,0,12.88,2.53,17.53,6.68,2.72-1.82,5.68-3.32,8.82-4.43,4.12-1.46,8.55-2.25,13.17-2.25s9.05.79,13.17,2.25c11.23,3.97,20.13,12.87,24.1,24.1.01.03.02.06.03.09,1.43,4.1,2.22,8.5,2.22,13.08Z"/>
    <path class="cls-3" d="M788.7,294.52l-7.84,1.85c-3.18.75-5.66,3.23-6.41,6.41l-1.85,7.84-1.85-7.84c-.75-3.18-3.23-5.66-6.41-6.41l-7.84-1.85,7.84-1.85c3.18-.75,5.66-3.23,6.41-6.41l1.85-7.84,1.85,7.84c.75,3.18,3.23,5.66,6.41,6.41l7.84,1.85Z"/>
    <path class="cls-3" d="M365.6,716.89l-7.84,1.85c-3.18.75-5.66,3.23-6.41,6.41l-1.85,7.84-1.85-7.84c-.75-3.18-3.23-5.66-6.41-6.41l-7.84-1.85,7.84-1.85c3.18-.75,5.66-3.23,6.41-6.41l1.85-7.84,1.85,7.84c.75,3.18,3.23,5.66,6.41,6.41l7.84,1.85Z"/>
    <path class="cls-9" d="M862.72,587.67c246.56-8.94,493.44-9.01,740,0-246.56,9.01-493.43,8.94-740,0h0Z"/>
    <path class="cls-9" d="M862.72,624.29c246.56-8.94,493.44-9.01,740,0-246.56,9.01-493.43,8.94-740,0h0Z"/>
    <path class="cls-5" d="M696.17,504.21v129.86c-22.11,0-42.3-8.3-57.6-21.95-17.77-15.85-28.97-38.93-28.97-64.62v-43.29c0-23.9-19.37-43.29-43.29-43.29-6.34,0-12.36,1.36-17.79,3.82-15.04,6.78-25.5,21.91-25.5,39.47v129.86c-47.81,0-86.57-38.76-86.57-86.57v-173.15c22.12,0,42.31,8.3,57.6,21.95,8.94-6,18.66-10.91,28.97-14.56,13.54-4.78,28.11-7.39,43.29-7.39s29.75,2.61,43.29,7.39c36.89,13.04,66.14,42.29,79.18,79.18.04.1.07.2.11.31,4.71,13.46,7.28,27.91,7.28,42.98Z"/>
  </g>
  <g id="Capa_11" data-name="Capa 11">
    <path class="cls-7" d="M582.37,547.32h-24.2c1.52-28.72,3.34-57.2,3.69-86.06h22.37c1.38,3.51-.4,7.22.94,11.56,7.09-9.6,16.32-13.72,27.51-13.72,11.34,0,20.92,3.08,25.95,14.51.62-.4,1.28-.62,1.65-1.08,10.87-13.19,26.55-17.23,42.4-10.88,8.82,3.53,13.65,10.59,13.49,20.76-.13,8.62-.63,17.26-1.39,25.85-1.13,12.87-.81,25.8-1.74,38.95h-23.95c.71-12.75,1.28-25.19,2.13-37.61.41-6.04.58-12.07.57-18.11,0-5.57-1.65-10.3-7.2-12.62-5.89-2.47-11.49-1.57-16.38,2.46-4.53,3.73-6.75,8.85-7.62,14.57-1.95,12.83-2.3,25.77-2.47,38.72-.05,4.06,0,8.11,0,12.52h-24.07c-.95-2.82-.04-5.77.11-8.68.8-15.73,2.26-31.43,2.01-47.2-.08-5.33-1.88-9.84-6.88-12.28-5.34-2.61-10.56-1.63-15.27,1.73-4,2.85-6.5,6.87-7.75,11.6-1.66,6.28-2.35,12.71-2.62,19.19-.49,11.81-1.54,23.59-1.28,35.82Z"/>
    <path class="cls-7" d="M428.49,531.67c-1.62,5.58-2.87,9.89-4.12,14.18-9.7,2.02-19.08,2.43-28.53.46-9.67-2.02-15.73-7.91-17.92-17.37-2.25-9.68.56-17.9,8.54-24.14,7.35-5.74,16.2-7.88,24.92-10.27,4.98-1.36,10.04-2.43,15.05-3.7,1.66-.42,3.33-.93,4.89-1.62,4.87-2.18,7.45-5.86,7.03-9.81-.45-4.24-3.98-7.52-9.51-8.25-11.38-1.5-22.32.86-33.09,4.25-2.01.63-3.99,1.33-6.34,2.11-.2-5.37,1.31-10.1,1.8-15.37,10.65-3.17,21.49-4.59,32.45-5.15,8.67-.44,17.24.16,25.51,3.17,8.94,3.25,13.92,9.58,13.6,19.07-.75,21.75-2.91,43.44-2.83,65.65h-23.96c.87-14.43,1.74-28.77,2.66-44.09-8.04,4.95-16.57,6.22-24.59,9.01-3.68,1.28-7.28,2.71-10.18,5.45-3.03,2.86-4.58,6.2-3.4,10.45,1.23,4.42,4.21,6.89,8.62,7.72,6.21,1.16,12.35.46,19.41-1.73Z"/>
    <path class="cls-4" d="M549.37,524.11c.46,6.28.44,12.21-.02,18.55-16.02,4.98-32,7.84-48.29,2.38-20.69-6.94-32.78-26.64-29.88-48.08,2.76-20.45,20.27-37.12,40.96-38.75,12.64-1,24.92.96,37.14,5.26.75,6.25.21,12.44.36,19.28-8.1-2.83-15.63-5.92-23.74-7.12-12.81-1.9-23.59,2.11-28.87,11.2-6.43,11.06-5.35,24.62,2.72,34.52,4.23,5.19,9.86,7.48,16.34,8.05,8.3.73,16.32-.65,24.23-3.1,2.82-.88,5.61-2.1,9.05-2.19Z"/>
    <path class="cls-7" d="M708.44,461.27h24.98c-2.08,28.71-3.11,57.1-3.31,85.87h-25.59c2.58-28.61,3.61-56.99,3.92-85.87Z"/>
    <path class="cls-7" d="M733.74,430.27v15.47h-24.12v-15.47h24.12Z"/>
  </g>
  <g id="Capa_12" data-name="Capa 12">
    <text class="cls-14" transform="translate(357.42 602.38) rotate(-112.88)"><tspan x="0" y="0">A</tspan></text>
    <text class="cls-14" transform="translate(346.38 574.92) rotate(-106.31)"><tspan x="0" y="0">s</tspan></text>
    <text class="cls-14" transform="translate(340.01 552.25) rotate(-100.14)"><tspan x="0" y="0">o</tspan></text>
    <text class="cls-14" transform="translate(335.76 526.35) rotate(-93.8)"><tspan x="0" y="0">c</tspan></text>
    <text class="cls-14" transform="translate(334.58 501.48) rotate(-88.99)"><tspan x="0" y="0">i</tspan></text>
    <text class="cls-14" transform="translate(334.87 486.87) rotate(-84.17)"><tspan x="0" y="0">a</tspan></text>
    <text class="cls-14" transform="translate(337.68 462.36) rotate(-78.04)"><tspan x="0" y="0">c</tspan></text>
    <text class="cls-14" transform="translate(343.31 438.09) rotate(-73.12)"><tspan x="0" y="0">i</tspan></text>
    <text class="cls-14" transform="translate(347.56 424.11) rotate(-68.06)"><tspan x="0" y="0">ó</tspan></text>
    <text class="cls-14" transform="translate(357.5 400.26) rotate(-61.6)"><tspan x="0" y="0">n</tspan></text>
    <text class="cls-14" transform="translate(370.51 377.32) rotate(-56.59)"><tspan x="0" y="0"> </tspan></text>
    <text class="cls-14" transform="translate(378.16 365.52) rotate(-51.12)"><tspan x="0" y="0">C</tspan></text>
    <text class="cls-14" transform="translate(397.51 342.29) rotate(-44.23)"><tspan x="0" y="0">o</tspan></text>
    <text class="cls-14" transform="translate(416.48 324.52) rotate(-39.24)"><tspan x="0" y="0">l</tspan></text>
    <text class="cls-14" transform="translate(427.8 315.29) rotate(-34.24)"><tspan x="0" y="0">o</tspan></text>
    <text class="cls-14" transform="translate(449.11 300.81) rotate(-26.57)"><tspan x="0" y="0">m</tspan></text>
    <text class="cls-14" transform="translate(481.91 285.22) rotate(-18.8)"><tspan x="0" y="0">b</tspan></text>
    <text class="cls-14" transform="translate(507.04 277.22) rotate(-13.7)"><tspan x="0" y="0">i</tspan></text>
    <text class="cls-14" transform="translate(521.25 273.8) rotate(-8.8)"><tspan x="0" y="0">a</tspan></text>
    <text class="cls-14" transform="translate(545.66 270.3) rotate(-2.53)"><tspan x="0" y="0">n</tspan></text>
    <text class="cls-14" transform="translate(571.91 269.49) rotate(3.66)"><tspan x="0" y="0">a</tspan></text>
    <text class="cls-14" transform="translate(596.65 271.55) rotate(8.46)"><tspan x="0" y="0"> </tspan></text>
    <text class="cls-14" transform="translate(610.6 273.61) rotate(13.49)"><tspan x="0" y="0">d</tspan></text>
    <text class="cls-14" transform="translate(636.03 280.07) rotate(19.91)"><tspan x="0" y="0">e</tspan></text>
    <text class="cls-14" transform="translate(659.81 289.22) rotate(24.84)"><tspan x="0" y="0"> </tspan></text>
    <text class="cls-14" transform="translate(672.65 294.74) rotate(31.39)"><tspan x="0" y="0">M</tspan></text>
    <text class="cls-14" transform="translate(705.33 315.68) rotate(39.28)"><tspan x="0" y="0">e</tspan></text>
    <text class="cls-14" transform="translate(725.01 332.19) rotate(45.7)"><tspan x="0" y="0">d</tspan></text>
    <text class="cls-14" transform="translate(743.06 351.43) rotate(50.74)"><tspan x="0" y="0">i</tspan></text>
    <text class="cls-14" transform="translate(752.28 362.76) rotate(55.61)"><tspan x="0" y="0">c</tspan></text>
    <text class="cls-14" transform="translate(765.95 383.57) rotate(60.49)"><tspan x="0" y="0">i</tspan></text>
    <text class="cls-14" transform="translate(773.14 396.27) rotate(65.57)"><tspan x="0" y="0">n</tspan></text>
    <text class="cls-14" transform="translate(783.67 420.34) rotate(71.91)"><tspan x="0" y="0">a</tspan></text>
    <text class="cls-14" transform="translate(790.92 444.06) rotate(76.76)"><tspan x="0" y="0"> </tspan></text>
    <text class="cls-14" transform="translate(794.01 457.94) rotate(80.53)"><tspan x="0" y="0">I</tspan></text>
    <text class="cls-14" transform="translate(796.59 473.64) rotate(85.74)"><tspan x="0" y="0">n</tspan></text>
    <text class="cls-14" transform="translate(798.07 499.59) rotate(90.96)"><tspan x="0" y="0">t</tspan></text>
    <text class="cls-14" transform="translate(797.73 516.35) rotate(96.06)"><tspan x="0" y="0">e</tspan></text>
    <text class="cls-14" transform="translate(794.61 541.56) rotate(101.53)"><tspan x="0" y="0">r</tspan></text>
    <text class="cls-14" transform="translate(790.76 559.91) rotate(107.14)"><tspan x="0" y="0">n</tspan></text>
    <text class="cls-14" transform="translate(782.68 584.88) rotate(113.48)"><tspan x="0" y="0">a</tspan></text>
  </g>
  <g id="Capa_13" data-name="Capa 13">
    <text class="cls-13" transform="translate(363.1 657.2) rotate(49.08) scale(.94 1)"><tspan x="0" y="0">M</tspan></text>
    <text class="cls-13" transform="translate(389.46 686.15) rotate(41.74) scale(.94 1)"><tspan x="0" y="0">é</tspan></text>
    <text class="cls-13" transform="translate(409.47 703.43) rotate(35.75) scale(.94 1)"><tspan x="0" y="0">d</tspan></text>
    <text class="cls-13" transform="translate(431.26 718.46) rotate(31.03) scale(.94 1)"><tspan x="0" y="0">i</tspan></text>
    <text class="cls-13" transform="translate(444.71 726.41) rotate(26.47) scale(.94 1)"><tspan x="0" y="0">c</tspan></text>
    <text class="cls-13" transform="translate(467.95 737.53) rotate(20.55) scale(.94 1)"><tspan x="0" y="0">o</tspan></text>
    <text class="cls-13" transform="translate(493.13 746.46) rotate(14.79) scale(.94 1)"><tspan x="0" y="0">s</tspan></text>
    <text class="cls-13" transform="translate(516.13 752.06) rotate(10.42) scale(.94 1)"><tspan x="0" y="0"> </tspan></text>
    <text class="cls-13" transform="translate(531.07 754.73) rotate(5.75) scale(.94 1)"><tspan x="0" y="0">p</tspan></text>
    <text class="cls-13" transform="translate(558.21 757.1) rotate(-.93) scale(.94 1)"><tspan x="0" y="0">a</tspan></text>
    <text class="cls-13" transform="translate(582.96 756.5) rotate(-5) scale(.94 1)"><tspan x="0" y="0">r</tspan></text>
    <text class="cls-13" transform="translate(601.68 754.68) rotate(-9.82) scale(.94 1)"><tspan x="0" y="0">a</tspan></text>
    <text class="cls-13" transform="translate(626.14 749.95) rotate(-14.33) scale(.94 1)"><tspan x="0" y="0"> </tspan></text>
    <text class="cls-13" transform="translate(641.03 746.11) rotate(-19.44) scale(.94 1)"><tspan x="0" y="0">A</tspan></text>
    <text class="cls-13" transform="translate(669.38 735.52) rotate(-25.89) scale(.94 1)"><tspan x="0" y="0">d</tspan></text>
    <text class="cls-13" transform="translate(693.48 723.34) rotate(-31.95) scale(.94 1)"><tspan x="0" y="0">u</tspan></text>
    <text class="cls-13" transform="translate(715.64 708.88) rotate(-36.66) scale(.94 1)"><tspan x="0" y="0">l</tspan></text>
    <text class="cls-13" transform="translate(727.77 699.61) rotate(-40.34) scale(.94 1)"><tspan x="0" y="0">t</tspan></text>
    <text class="cls-13" transform="translate(741.14 688.07) rotate(-45.17) scale(.94 1)"><tspan x="0" y="0">o</tspan></text>
    <text class="cls-13" transform="translate(759.62 668.81) rotate(-50.86) scale(.94 1)"><tspan x="0" y="0">s</tspan></text>
    <circle class="cls-3" cx="358.24" cy="623.76" r="4.01"/>
    <circle class="cls-3" cx="774.59" cy="623.36" r="4.01"/>
  </g>
</svg>